<svg width="14" height="13" viewBox="0 0 14 13" fill="none" xmlns="http://www.w3.org/2000/svg">
<path d="M1.75 1.5C1.75 1.01602 1.35898 0.625 0.875 0.625C0.391016 0.625 0 1.01602 0 1.5V10.6875C0 11.8961 0.978906 12.875 2.1875 12.875H13.125C13.609 12.875 14 12.484 14 12C14 11.516 13.609 11.125 13.125 11.125H2.1875C1.94687 11.125 1.75 10.9281 1.75 10.6875V1.5ZM12.868 3.86797C13.2098 3.52617 13.2098 2.97109 12.868 2.6293C12.5262 2.2875 11.9711 2.2875 11.6293 2.6293L8.75 5.51133L7.18047 3.9418C6.83867 3.6 6.28359 3.6 5.9418 3.9418L2.8793 7.0043C2.5375 7.34609 2.5375 7.90117 2.8793 8.24297C3.22109 8.58477 3.77617 8.58477 4.11797 8.24297L6.5625 5.80117L8.13203 7.3707C8.47383 7.7125 9.02891 7.7125 9.3707 7.3707L12.8707 3.8707L12.868 3.86797Z" fill="#16A34A"/>
</svg>
