<svg width="16" height="16" viewBox="0 0 16 16" fill="none" xmlns="http://www.w3.org/2000/svg">
<g clip-path="url(#clip0_1_1947)">
<path d="M6 3.275C6 2.9875 5.81875 2.73438 5.5875 2.5625C5.225 2.29063 5 1.91562 5 1.5C5 0.671875 5.89687 0 7 0C8.10312 0 9 0.671875 9 1.5C9 1.91562 8.775 2.29063 8.4125 2.5625C8.18125 2.73438 8 2.9875 8 3.275C8 3.675 8.325 4 8.725 4H10.5C11.3281 4 12 4.67188 12 5.5V7.275C12 7.675 12.325 8 12.725 8C13.0125 8 13.2656 7.81875 13.4375 7.5875C13.7094 7.225 14.0844 7 14.5 7C15.3281 7 16 7.89687 16 9C16 10.1031 15.3281 11 14.5 11C14.0844 11 13.7094 10.775 13.4375 10.4125C13.2656 10.1813 13.0125 10 12.725 10C12.325 10 12 10.325 12 10.725V14.5C12 15.3281 11.3281 16 10.5 16H8.725C8.325 16 8 15.675 8 15.275C8 14.9875 8.18125 14.7344 8.4125 14.5625C8.775 14.2906 9 13.9156 9 13.5C9 12.6719 8.10312 12 7 12C5.89687 12 5 12.6719 5 13.5C5 13.9156 5.225 14.2906 5.5875 14.5625C5.81875 14.7344 6 14.9875 6 15.275C6 15.675 5.675 16 5.275 16H1.5C0.671875 16 0 15.3281 0 14.5V10.725C0 10.325 0.325 10 0.725 10C1.0125 10 1.26562 10.1813 1.4375 10.4125C1.70938 10.775 2.08437 11 2.5 11C3.32812 11 4 10.1031 4 9C4 7.89687 3.32812 7 2.5 7C2.08437 7 1.70938 7.225 1.4375 7.5875C1.26562 7.81875 1.0125 8 0.725 8C0.325 8 0 7.675 0 7.275V5.5C0 4.67188 0.671875 4 1.5 4H5.275C5.675 4 6 3.675 6 3.275Z" fill="#9333EA"/>
</g>
<defs>
<clipPath id="clip0_1_1947">
<path d="M0 0H16V16H0V0Z" fill="white"/>
</clipPath>
</defs>
</svg>
