<svg width="14" height="15" viewBox="0 0 14 15" fill="none" xmlns="http://www.w3.org/2000/svg">
<path d="M14 14.75H0V0.75H14V14.75Z" stroke="#E5E7EB"/>
<path d="M1.09375 2.0625C0.730078 2.0625 0.4375 2.35508 0.4375 2.71875V4.03125C0.4375 4.39492 0.730078 4.6875 1.09375 4.6875H2.40625C2.76992 4.6875 3.0625 4.39492 3.0625 4.03125V2.71875C3.0625 2.35508 2.76992 2.0625 2.40625 2.0625H1.09375ZM5.25 2.5C4.76602 2.5 4.375 2.89102 4.375 3.375C4.375 3.85898 4.76602 4.25 5.25 4.25H13.125C13.609 4.25 14 3.85898 14 3.375C14 2.89102 13.609 2.5 13.125 2.5H5.25ZM5.25 6.875C4.76602 6.875 4.375 7.26602 4.375 7.75C4.375 8.23398 4.76602 8.625 5.25 8.625H13.125C13.609 8.625 14 8.23398 14 7.75C14 7.26602 13.609 6.875 13.125 6.875H5.25ZM5.25 11.25C4.76602 11.25 4.375 11.641 4.375 12.125C4.375 12.609 4.76602 13 5.25 13H13.125C13.609 13 14 12.609 14 12.125C14 11.641 13.609 11.25 13.125 11.25H5.25ZM0.4375 7.09375V8.40625C0.4375 8.76992 0.730078 9.0625 1.09375 9.0625H2.40625C2.76992 9.0625 3.0625 8.76992 3.0625 8.40625V7.09375C3.0625 6.73008 2.76992 6.4375 2.40625 6.4375H1.09375C0.730078 6.4375 0.4375 6.73008 0.4375 7.09375ZM1.09375 10.8125C0.730078 10.8125 0.4375 11.1051 0.4375 11.4688V12.7812C0.4375 13.1449 0.730078 13.4375 1.09375 13.4375H2.40625C2.76992 13.4375 3.0625 13.1449 3.0625 12.7812V11.4688C3.0625 11.1051 2.76992 10.8125 2.40625 10.8125H1.09375Z" fill="#2563EB"/>
</svg>
