<svg width="10" height="16" viewBox="0 0 10 16" fill="none" xmlns="http://www.w3.org/2000/svg">
<g clip-path="url(#clip0_1_1950)">
<path d="M5.00005 0C5.55317 0 6.00005 0.446875 6.00005 1V2.11562C6.05005 2.12187 6.09692 2.12812 6.14692 2.1375C6.15942 2.14062 6.1688 2.14062 6.1813 2.14375L7.6813 2.41875C8.22505 2.51875 8.58442 3.04063 8.48442 3.58125C8.38442 4.12187 7.86255 4.48438 7.32192 4.38438L5.83755 4.1125C4.85942 3.96875 3.99692 4.06563 3.39067 4.30625C2.78442 4.54688 2.54067 4.87812 2.48442 5.18437C2.42192 5.51875 2.4688 5.70625 2.52192 5.82188C2.57817 5.94375 2.69379 6.08125 2.92192 6.23438C3.43129 6.56875 4.21255 6.7875 5.22505 7.05625L5.31567 7.08125C6.20942 7.31875 7.30317 7.60625 8.11567 8.1375C8.55942 8.42812 8.97817 8.82187 9.23755 9.37187C9.50317 9.93125 9.55942 10.5563 9.43754 11.2219C9.22192 12.4094 8.40317 13.2031 7.38755 13.6187C6.95942 13.7937 6.4938 13.9062 6.00005 13.9625V15C6.00005 15.5531 5.55317 16 5.00005 16C4.44692 16 4.00005 15.5531 4.00005 15V13.9094C3.98755 13.9062 3.97192 13.9062 3.95942 13.9031H3.95317C3.19067 13.7844 1.93755 13.4563 1.0938 13.0813C0.59067 12.8562 0.362545 12.2656 0.587545 11.7625C0.812545 11.2594 1.40317 11.0312 1.9063 11.2563C2.55942 11.5469 3.63442 11.8344 4.25629 11.9312C5.25317 12.0781 6.07505 11.9937 6.6313 11.7656C7.15942 11.55 7.40005 11.2375 7.4688 10.8625C7.52817 10.5312 7.4813 10.3406 7.42817 10.225C7.3688 10.1 7.25317 9.9625 7.02192 9.80937C6.50942 9.475 5.72505 9.25625 4.70942 8.9875L4.62192 8.96562C3.7313 8.72812 2.63755 8.4375 1.82505 7.90625C1.3813 7.61562 0.96567 7.21875 0.706295 6.66875C0.443795 6.10938 0.39067 5.48438 0.51567 4.81875C0.74067 3.625 1.63442 2.85 2.65005 2.44688C3.06567 2.28125 3.52192 2.16875 4.00005 2.10313V1C4.00005 0.446875 4.44692 0 5.00005 0Z" fill="#059669"/>
</g>
<defs>
<clipPath id="clip0_1_1950">
<path d="M0 0H10V16H0V0Z" fill="white"/>
</clipPath>
</defs>
</svg>
