<svg width="14" height="15" viewBox="0 0 14 15" fill="none" xmlns="http://www.w3.org/2000/svg">
<g clip-path="url(#clip0_1_2159)">
<path d="M6.99996 0.75C6.51598 0.75 6.12496 1.14102 6.12496 1.625V2.15C4.12887 2.55469 2.62496 4.32109 2.62496 6.4375V6.95156C2.62496 8.23672 2.15192 9.47812 1.29879 10.4406L1.09645 10.6676C0.866762 10.9246 0.812074 11.2937 0.951527 11.6082C1.09098 11.9227 1.40543 12.125 1.74996 12.125H12.25C12.5945 12.125 12.9062 11.9227 13.0484 11.6082C13.1906 11.2937 13.1332 10.9246 12.9035 10.6676L12.7011 10.4406C11.848 9.47812 11.375 8.23945 11.375 6.95156V6.4375C11.375 4.32109 9.87106 2.55469 7.87496 2.15V1.625C7.87496 1.14102 7.48395 0.75 6.99996 0.75ZM8.23864 14.2387C8.56676 13.9105 8.74997 13.4648 8.74997 13H6.99996H5.24996C5.24996 13.4648 5.43317 13.9105 5.76129 14.2387C6.08942 14.5668 6.53512 14.75 6.99996 14.75C7.46481 14.75 7.91051 14.5668 8.23864 14.2387Z" fill="#DC2626"/>
</g>
<defs>
<clipPath id="clip0_1_2159">
<path d="M0.875 0.75H13.125V14.75H0.875V0.75Z" fill="white"/>
</clipPath>
</defs>
</svg>
