<svg width="14" height="15" viewBox="0 0 14 15" fill="none" xmlns="http://www.w3.org/2000/svg">
<g clip-path="url(#clip0_377_312)">
<path d="M7 14.9199C5.13023 14.9199 3.37239 14.1918 2.05023 12.8697C0.728137 11.5475 0 9.78969 0 7.91992C0 6.05016 0.728137 4.29231 2.05023 2.97016C3.37239 1.64806 5.13023 0.919922 7 0.919922C8.86977 0.919922 10.6276 1.64806 11.9498 2.97016C13.2719 4.29231 14 6.05016 14 7.91992C14 9.78969 13.2719 11.5475 11.9498 12.8697C10.6276 14.1918 8.86977 14.9199 7 14.9199ZM7 2.01367C3.74328 2.01367 1.09375 4.6632 1.09375 7.91992C1.09375 11.1766 3.74328 13.8262 7 13.8262C10.2567 13.8262 12.9062 11.1766 12.9062 7.91992C12.9062 4.6632 10.2567 2.01367 7 2.01367ZM9.55265 10.3298C9.64053 10.2417 9.77153 10.1872 9.89464 10.1894C10.0135 10.1908 10.136 10.2433 10.2224 10.3298C10.4358 10.5435 10.7821 10.5437 10.9958 10.3304C11.2095 10.1169 11.2097 9.77066 10.9963 9.55696C10.7084 9.26865 10.3116 9.10057 9.90763 9.09576C9.4876 9.09193 9.07632 9.25889 8.77868 9.55696C8.67541 9.66038 8.55252 9.72464 8.458 9.72464C8.36276 9.72464 8.23944 9.66038 8.13616 9.55696C7.84645 9.26685 7.44622 9.09871 7.03814 9.09579C7.03443 9.09576 7.03073 9.09573 7.02704 9.09573C6.61508 9.09573 6.2116 9.26346 5.9185 9.55694C5.82963 9.64594 5.71219 9.6971 5.59634 9.69729C5.59612 9.69729 5.59587 9.69729 5.59568 9.69729C5.47988 9.69729 5.36637 9.64747 5.276 9.55696C4.97883 9.25933 4.56879 9.09155 4.14766 9.09576C3.74374 9.10011 3.34671 9.26822 3.05834 9.55694C2.84493 9.77066 2.84517 10.1169 3.05889 10.3304C3.27261 10.5437 3.61886 10.5436 3.83228 10.3298C3.9188 10.2432 4.04108 10.1907 4.15945 10.1894C4.16095 10.1894 4.16246 10.1894 4.16396 10.1894C4.28619 10.1894 4.41533 10.2429 4.50207 10.3298C4.79916 10.6273 5.18738 10.791 5.59565 10.791H5.5982C6.00157 10.7904 6.40043 10.6222 6.69249 10.3298C6.7798 10.2424 6.90897 10.1899 7.03024 10.1895C7.14949 10.1903 7.27672 10.2441 7.36228 10.3298C7.67227 10.6403 8.07168 10.8184 8.45802 10.8184C8.84363 10.8184 9.2426 10.6403 9.55265 10.3298ZM4.59375 5.43164C4.97129 5.43164 5.27734 5.7377 5.27734 6.11523C5.27734 6.49277 4.97129 6.79883 4.59375 6.79883C4.21621 6.79883 3.91016 6.49277 3.91016 6.11523C3.91016 5.7377 4.21621 5.43164 4.59375 5.43164ZM8.69531 6.11523C8.69531 6.49277 9.00137 6.79883 9.37891 6.79883C9.75644 6.79883 10.0625 6.49277 10.0625 6.11523C10.0625 5.7377 9.75644 5.43164 9.37891 5.43164C9.00137 5.43164 8.69531 5.7377 8.69531 6.11523Z" fill="#EA4335"/>
</g>
<defs>
<clipPath id="clip0_377_312">
<rect width="14" height="14" fill="white" transform="translate(0 0.919922)"/>
</clipPath>
</defs>
</svg>
