<svg width="14" height="15" viewBox="0 0 14 15" fill="none" xmlns="http://www.w3.org/2000/svg">
<path d="M5.23086 0.89766C5.44414 0.698051 5.775 0.700785 5.98828 0.900395C6.74297 1.6086 7.45117 2.37149 8.11289 3.19727C8.41367 2.80352 8.75547 2.37422 9.12461 2.02422C9.34063 1.82188 9.67422 1.82188 9.89023 2.02696C10.8363 2.9293 11.6375 4.12149 12.2008 5.25352C12.7559 6.36914 13.125 7.50938 13.125 8.31329C13.125 11.8023 10.3961 14.75 7 14.75C3.56562 14.75 0.875 11.7996 0.875 8.31055C0.875 7.26055 1.36172 5.97813 2.11641 4.70938C2.8793 3.42149 3.95664 2.07891 5.23086 0.89766ZM7.04648 12.125C7.73828 12.125 8.35078 11.9336 8.92773 11.5508C10.0789 10.7469 10.3879 9.13907 9.69609 7.87579C9.57305 7.62969 9.25859 7.61329 9.08086 7.8211L8.3918 8.62227C8.21133 8.83008 7.88594 8.82461 7.71641 8.6086C7.26523 8.03438 6.45859 7.00899 5.99922 6.42657C5.82695 6.20782 5.49883 6.20508 5.32383 6.42383C4.39961 7.58594 3.93477 8.31875 3.93477 9.1418C3.9375 11.0148 5.32109 12.125 7.04648 12.125Z" fill="#16A34A"/>
</svg>
